<svg id="레이어_1" data-name="레이어 1" xmlns="http://www.w3.org/2000/svg" viewBox="0 0 449.22 167"><defs><style>.cls-1,.cls-2{fill:#787979;}.cls-1{stroke:#787979;stroke-miterlimit:10;stroke-width:0.75px;}</style></defs><path class="cls-1" d="M162.43,109.29h27.89v6H155.77V64.53h6.66Z"/><path class="cls-1" d="M205.1,66.62a4.35,4.35,0,1,1-4.38-4.31A4.22,4.22,0,0,1,205.1,66.62Zm-7.61,48.75V79.05H204v36.32Z"/><path class="cls-1" d="M232.55,84.82H224.5v30.49H218V84.82H210.8V79.05H218V72.9c0-6,3.48-10.21,9.7-10.21a20.9,20.9,0,0,1,4.24.38v5.52a16.61,16.61,0,0,0-3.1-.19c-2.67,0-4.31,1.71-4.31,4.69v6h8.05Z"/><path class="cls-1" d="M235.78,97.18c0-10.91,7.61-19,18.2-19s18.13,8.11,18.13,19a18.71,18.71,0,0,1-.13,2.66H242.31c.7,6.22,5.2,10.84,11.67,10.84,4.94,0,8.81-2.28,10.14-5.26h6.66c-2,6.28-8.5,10.78-16.8,10.78C243.39,116.2,235.78,108.08,235.78,97.18ZM254,83.67c-6.53,0-11,4.57-11.67,10.85h23.4C265,88.18,260.51,83.67,254,83.67Z"/><path class="cls-1" d="M287,62.94V84.56c1.52-2.66,5.64-6.4,12.3-6.4,8.56,0,14.58,6.15,14.58,15.91v21.24H307.3V95.21c0-7.35-3.55-11.35-9.45-11.35-6.34,0-10.9,6-10.9,12.68v18.77h-6.53V62.94Z"/><path class="cls-1" d="M330.89,66.62a4.35,4.35,0,1,1-4.38-4.31A4.22,4.22,0,0,1,330.89,66.62Zm-7.61,48.75V79.05h6.53v36.32Z"/><path class="cls-1" d="M346.61,79.05v5.13a12.27,12.27,0,0,1,11-6,11.62,11.62,0,0,1,11.28,7.61c2.16-4.57,6.72-7.61,12.87-7.61,7.74,0,13.32,5.9,13.32,15.09v22.06h-6.53v-21c0-6.53-3.17-10.47-8.31-10.47-5.45,0-9.38,5.33-9.38,11.92v19.53H364.3V94.58c0-6.78-3.23-10.72-8.31-10.72-5.39,0-9.38,5.33-9.38,11.86v19.59h-6.53V79.05Z"/><path class="cls-2" d="M125.72,60.6a57.78,57.78,0,0,0-24.81,14.67A59.27,59.27,0,0,0,93.72,84a57.37,57.37,0,0,0-7.18-8.74,58.05,58.05,0,0,0-24.21-14.5,60.74,60.74,0,0,1,5.24,4.64,57.75,57.75,0,0,1,17,41c0,.49,0,1,0,1.49V108a59.14,59.14,0,0,1-.57,6.7v.09c-.22,1.51-.5,3-.85,4.47h21.62a58.07,58.07,0,0,1,15.53-53.82A59.37,59.37,0,0,1,125.72,60.6Z"/><circle class="cls-2" cx="94.02" cy="58.73" r="10.96"/><path class="cls-2" d="M114.1,118.37c-.06-.44-.11-.88-.15-1.33a26.42,26.42,0,0,1,.88-9.16,37.59,37.59,0,0,1,3.83-9,55.23,55.23,0,0,1,5.87-8.21,57.19,57.19,0,0,0-7.68,6.87,41.25,41.25,0,0,0-6.19,8.63,32,32,0,0,0-3.38,10c-2.52-14.77,1-30.83,19.3-46.2,4.72-4,6-7.71,6-7.71S141.15,111.86,114.1,118.37Z"/><path class="cls-2" d="M73.94,118.37c.06-.44.12-.88.15-1.33a26.18,26.18,0,0,0-.88-9.16,38,38,0,0,0-3.82-9,56.72,56.72,0,0,0-5.87-8.21,56.51,56.51,0,0,1,7.67,6.87,41.29,41.29,0,0,1,6.2,8.63,32,32,0,0,1,3.37,10c2.52-14.77-1-30.83-19.3-46.2-4.72-4-6-7.71-6-7.71S46.89,111.86,73.94,118.37Z"/></svg>